<svg xmlns="http://www.w3.org/2000/svg" viewBox="0 0 512 512" role="img" aria-label="Scan business card for Notion icon">
  <defs>
    <linearGradient id="card" x1="0%" y1="0%" x2="0%" y2="100%">
      <stop offset="0%" stop-color="#f7f9f8" />
      <stop offset="100%" stop-color="#eef2f1" />
    </linearGradient>
  </defs>
  <rect x="24" y="24" width="464" height="464" rx="96" ry="96" fill="#f1f3f2" />
  <g fill="#3f4a50" stroke="#3f4a50" stroke-width="4" stroke-linecap="round" stroke-linejoin="round">
    <path d="M92 92h64v-24H92c-13.3 0-24 10.7-24 24v64h24z" />
    <path d="M356 92h64v64h24v-64c0-13.3-10.7-24-24-24h-64z" />
    <path d="M92 356H68v64c0 13.3 10.7 24 24 24h64v-24H92z" />
    <path d="M420 420h-64v24h64c13.3 0 24-10.7 24-24v-64h-24z" />
  </g>
  <g transform="translate(72 132)">
    <rect x="0" y="26" width="280" height="200" rx="28" fill="url(#card)" stroke="#3f4a50" stroke-width="16" />
    <circle cx="68" cy="106" r="38" fill="#e4e8e6" stroke="#3f4a50" stroke-width="14" />
    <path d="M40 176c0-25 22-46 56-46s56 21 56 46" fill="#e4e8e6" stroke="#3f4a50" stroke-width="14" />
    <rect x="140" y="88" width="120" height="26" rx="12" fill="#3f4a50" />
    <rect x="140" y="132" width="120" height="26" rx="12" fill="#3f4a50" />
  </g>
  <g transform="translate(244 108)">
    <rect x="40" y="12" width="188" height="244" rx="32" fill="#3f4a50" />
    <rect x="56" y="32" width="156" height="208" rx="20" fill="#f7f9f8" stroke="#f7f9f8" stroke-width="6" />
    <path d="M180 32h32v32z" fill="#e7ebea" />
    <path d="M180 32h8v24h24v8h-32z" fill="#3f4a50" />
    <path d="M86 116 158 94l40 22v126l-80 26-50-26z" fill="#e7ebea" stroke="#3f4a50" stroke-width="10" />
    <path d="M134 134v84l34 10 26-8V136l-30-16z" fill="#3f4a50" />
    <path d="M118 156 188 178M118 190l70 22" fill="none" stroke="#e7ebea" stroke-width="10" />
    <text x="122" y="216" font-family="'Inter', 'Noto Sans JP', system-ui" font-weight="700" font-size="64" fill="#f7f9f8">N</text>
  </g>
</svg>
